<svg width="296" height="160" viewBox="0 0 296 160" fill="none" xmlns="http://www.w3.org/2000/svg">
<path fill-rule="evenodd" clip-rule="evenodd" d="M136 16C136 8.45753 136 4.68629 138.343 2.34315C140.686 0 144.458 0 152 0C159.542 0 163.314 0 165.657 2.34315C168 4.68629 168 8.45753 168 16C168 23.5425 168 27.3137 170.343 29.6569C172.686 32 176.458 32 184 32H185.5C192.557 32 196.086 32 198.372 34.0724C198.566 34.2482 198.752 34.4335 198.928 34.6275C201 36.9141 201 40.4427 201 47.5C201 54.5573 201 58.0859 203.072 60.3725C203.248 60.5665 203.434 60.7518 203.628 60.9276C205.914 63 209.443 63 216.5 63C223.557 63 227.086 63 229.372 60.9276C229.566 60.7518 229.752 60.5665 229.928 60.3725C232 58.0859 232 54.5573 232 47.5C232 40.4427 232 36.9141 234.072 34.6275C234.248 34.4335 234.434 34.2482 234.628 34.0724C236.914 32 240.443 32 247.5 32H248.5C255.557 32 259.086 32 261.372 34.0724C261.566 34.2482 261.752 34.4335 261.928 34.6275C264 36.9141 264 40.4427 264 47.5C264 54.5573 264 58.0859 266.072 60.3725C266.248 60.5665 266.434 60.7518 266.628 60.9276C268.914 63 272.443 63 279.5 63H280C287.542 63 291.314 63 293.657 65.3431C296 67.6863 296 71.4575 296 79V96V128V144C296 151.542 296 155.314 293.657 157.657C291.314 160 287.542 160 280 160C272.458 160 268.686 160 266.343 157.657C264 155.314 264 151.542 264 144V128V96V80C264 72.4575 264 68.6863 261.657 66.3431C259.314 64 255.542 64 248 64C240.458 64 236.686 64 234.343 66.3431C232 68.6863 232 72.4575 232 80C232 87.5425 232 91.3137 229.657 93.6569C227.314 96 223.542 96 216 96C208.458 96 204.686 96 202.343 93.6569C200 91.3137 200 87.5425 200 80C200 72.4575 200 68.6863 197.657 66.3431C195.314 64 191.542 64 184 64C176.458 64 172.686 64 170.343 66.3431C168 68.6863 168 72.4575 168 80V96V128V144C168 151.542 168 155.314 165.657 157.657C163.314 160 159.542 160 152 160C144.458 160 140.686 160 138.343 157.657C136 155.314 136 151.542 136 144V128V96V64V32V16Z" fill="black"/>
<path fill-rule="evenodd" clip-rule="evenodd" d="M64 0H81.5C88.5573 0 92.0859 0 94.3725 2.07239C94.5665 2.24824 94.7518 2.43351 94.9276 2.62753C97 4.91406 97 8.44271 97 15.5C97 22.5573 97 26.0859 99.0724 28.3725C99.2482 28.5665 99.4335 28.7518 99.6275 28.9276C101.914 31 105.443 31 112.5 31C119.557 31 123.086 31 125.372 33.0724C125.566 33.2482 125.752 33.4335 125.928 33.6275C128 35.9141 128 39.4427 128 46.5V64V96V113.5C128 120.557 128 124.086 125.928 126.372C125.752 126.566 125.566 126.752 125.372 126.928C123.086 129 119.557 129 112.5 129C105.443 129 101.914 129 99.6275 131.072C99.4335 131.248 99.2482 131.434 99.0724 131.628C97 133.914 97 137.443 97 144.5C97 151.557 97 155.086 94.9276 157.372C94.7518 157.566 94.5665 157.752 94.3725 157.928C92.0859 160 88.5573 160 81.5 160H64H32H16C8.45753 160 4.68629 160 2.34315 157.657C0 155.314 0 151.542 0 144C0 136.458 0 132.686 2.34315 130.343C4.68629 128 8.45753 128 16 128H32H64H80C87.5425 128 91.3137 128 93.6569 125.657C96 123.314 96 119.542 96 112V96V64V48C96 40.4575 96 36.6863 93.6569 34.3431C91.3137 32 87.5425 32 80 32H64H32H16C8.45753 32 4.68629 32 2.34315 29.6569C0 27.3137 0 23.5425 0 16C0 8.45753 0 4.68629 2.34315 2.34315C4.68629 0 8.45753 0 16 0H32H64Z" fill="black"/>
</svg>
